<svg width="18" height="18" viewBox="0 0 18 18" fill="none" xmlns="http://www.w3.org/2000/svg">
<path d="M5 4C5 4.55 4.55 5 4 5C3.45 5 3 4.55 3 4C3 3.45 3.45 3 4 3C4.55 3 5 3.45 5 4ZM4 13C3.45 13 3 13.45 3 14C3 14.55 3.45 15 4 15C4.55 15 5 14.55 5 14C5 13.45 4.55 13 4 13ZM7.79 5.23L18 15.44V17H14.73L8.97 11.24L7.7 12.51C7.89 12.97 8 13.47 8 14C8 16.21 6.21 18 4 18C1.79 18 0 16.21 0 14C0 11.79 1.79 10 4 10C4.42 10 4.81 10.08 5.19 10.2L6.56 8.83L5.45 7.72C5 7.89 4.51 8 4 8C1.79 8 0 6.21 0 4C0 1.79 1.79 0 4 0C6.21 0 8 1.79 8 4C8 4.43 7.91 4.84 7.79 5.23ZM7.08 5.94L6.65 5.5L6.84 4.92C6.95 4.58 7 4.28 7 4C7 2.35 5.65 1 4 1C2.35 1 1 2.35 1 4C1 5.65 2.35 7 4 7C4.36 7 4.73 6.93 5.09 6.79L5.7 6.55L6.16 7.01L7.27 8.12L7.98 8.83L7.27 9.54L5.9 10.91L5.47 11.34L4.89 11.16C4.55 11.05 4.27 11 4 11C2.35 11 1 12.35 1 14C1 15.65 2.35 17 4 17C5.65 17 7 15.65 7 14C7 13.62 6.93 13.25 6.78 12.88L6.53 12.27L7 11.8L8.27 10.53L8.98 9.82L9.69 10.53L15.15 16H17V15.85L7.08 5.94ZM14.73 1H18V2.56L12.48 8.08L10.07 5.67L14.73 1ZM15.15 2L11.48 5.67L12.48 6.67L17 2.15V2H15.15Z" fill="black"/>
</svg>
